<?xml version="1.0" encoding="UTF-8" standalone="no"?>
<!-- Created with Inkscape (http://www.inkscape.org/) -->

<svg
   xmlns:dc="http://purl.org/dc/elements/1.1/"
   xmlns:cc="http://creativecommons.org/ns#"
   xmlns:rdf="http://www.w3.org/1999/02/22-rdf-syntax-ns#"
   xmlns:svg="http://www.w3.org/2000/svg"
   xmlns="http://www.w3.org/2000/svg"
   xmlns:sodipodi="http://sodipodi.sourceforge.net/DTD/sodipodi-0.dtd"
   xmlns:inkscape="http://www.inkscape.org/namespaces/inkscape"
   width="48pt"
   height="48pt"
   viewBox="0 0 16.933334 16.933333"
   version="1.1"
   id="svg979"
   inkscape:version="0.92.4 (5da689c313, 2019-01-14)"
   sodipodi:docname="6 - Hair Dryer.svg"
   inkscape:export-filename="E:\TR Design Studio Creative\Project Design\TR Creative Design\Icon Design\Project Hiring\Icon Icons\Project - 001\002 - Beauty And Fashion\Send\4 - Filled Line\6 - Hair Dryer.png"
   inkscape:export-xdpi="768"
   inkscape:export-ydpi="768">
  <defs
     id="defs973" />
  <sodipodi:namedview
     id="base"
     pagecolor="#ffffff"
     bordercolor="#666666"
     borderopacity="1.0"
     inkscape:pageopacity="0.0"
     inkscape:pageshadow="2"
     inkscape:zoom="6.0435533"
     inkscape:cx="26.64934"
     inkscape:cy="37.000654"
     inkscape:document-units="pt"
     inkscape:current-layer="layer1"
     showgrid="false"
     units="pt"
     inkscape:window-width="1366"
     inkscape:window-height="716"
     inkscape:window-x="-8"
     inkscape:window-y="-8"
     inkscape:window-maximized="1"
     inkscape:snap-bbox="true"
     inkscape:bbox-nodes="true"
     inkscape:snap-nodes="false"
     showguides="false">
    <inkscape:grid
       type="xygrid"
       id="grid1526" />
    <sodipodi:guide
       position="0.97013909,15.963209"
       orientation="56.666615,0"
       id="guide1528"
       inkscape:locked="false" />
    <sodipodi:guide
       position="0.97013909,0.97016731"
       orientation="0,56.666667"
       id="guide1530"
       inkscape:locked="false" />
    <sodipodi:guide
       position="15.963195,0.97016731"
       orientation="-56.666615,0"
       id="guide1532"
       inkscape:locked="false" />
    <sodipodi:guide
       position="15.963195,15.963209"
       orientation="0,-56.666667"
       id="guide1534"
       inkscape:locked="false" />
  </sodipodi:namedview>
  <metadata
     id="metadata976">
    <rdf:RDF>
      <cc:Work
         rdf:about="">
        <dc:format>image/svg+xml</dc:format>
        <dc:type
           rdf:resource="http://purl.org/dc/dcmitype/StillImage" />
        <dc:title></dc:title>
      </cc:Work>
    </rdf:RDF>
  </metadata>
  <g
     inkscape:label="Layer 1"
     inkscape:groupmode="layer"
     id="layer1"
     transform="translate(0,-280.06668)">
    <g
       id="g1117"
       transform="matrix(1.2291706,0,0,1.2291706,-1.4348132,-67.812732)"
       style="stroke-width:0.81355667">
      <g
         id="g2177"
         style="display:inline;stroke-width:0.81355667"
         transform="translate(-64.32229,21.269344)">
        <path
           style="color:#000000;font-style:normal;font-variant:normal;font-weight:normal;font-stretch:normal;font-size:medium;line-height:normal;font-family:sans-serif;font-variant-ligatures:normal;font-variant-position:normal;font-variant-caps:normal;font-variant-numeric:normal;font-variant-alternates:normal;font-feature-settings:normal;text-indent:0;text-align:start;text-decoration:none;text-decoration-line:none;text-decoration-style:solid;text-decoration-color:#000000;letter-spacing:normal;word-spacing:normal;text-transform:none;writing-mode:lr-tb;direction:ltr;text-orientation:mixed;dominant-baseline:auto;baseline-shift:baseline;text-anchor:start;white-space:normal;shape-padding:0;clip-rule:nonzero;display:inline;overflow:visible;visibility:visible;opacity:1;isolation:auto;mix-blend-mode:normal;color-interpolation:sRGB;color-interpolation-filters:linearRGB;solid-color:#000000;solid-opacity:1;vector-effect:none;fill:#f2f2f2;fill-opacity:1;fill-rule:nonzero;stroke:none;stroke-width:0.43050736;stroke-linecap:round;stroke-linejoin:round;stroke-miterlimit:4;stroke-dasharray:none;stroke-dashoffset:0;stroke-opacity:1;paint-order:markers fill stroke;color-rendering:auto;image-rendering:auto;shape-rendering:auto;text-rendering:auto;enable-background:accumulate"
           d="m 71.818359,267.56445 a 0.26460996,0.26460996 0 0 0 -0.101562,0.50196 c 0,0 1.175781,0.58014 1.175781,1.875 v 2.65625 a 0.26460996,0.26460996 0 0 0 0.0039,0.043 c 0,0 0.04607,0.27169 0.25586,0.52344 0.209792,0.25175 0.6,0.49219 1.195312,0.49219 0.595313,0 0.98552,-0.24044 1.195313,-0.49219 0.209792,-0.25175 0.255859,-0.52344 0.255859,-0.52344 a 0.26460996,0.26460996 0 0 0 0.0039,-0.0254 l 0.263672,-3.78515 a 0.26460996,0.26460996 0 0 0 -0.201172,-0.27539 l -3.96875,-0.98242 a 0.26460996,0.26460996 0 0 0 -0.07813,-0.008 z"
           id="path1580"
           inkscape:connector-curvature="0"
           inkscape:export-xdpi="700.72992"
           inkscape:export-ydpi="700.72992" />
        <path
           style="color:#000000;font-style:normal;font-variant:normal;font-weight:normal;font-stretch:normal;font-size:medium;line-height:normal;font-family:sans-serif;font-variant-ligatures:normal;font-variant-position:normal;font-variant-caps:normal;font-variant-numeric:normal;font-variant-alternates:normal;font-feature-settings:normal;text-indent:0;text-align:start;text-decoration:none;text-decoration-line:none;text-decoration-style:solid;text-decoration-color:#000000;letter-spacing:normal;word-spacing:normal;text-transform:none;writing-mode:lr-tb;direction:ltr;text-orientation:mixed;dominant-baseline:auto;baseline-shift:baseline;text-anchor:start;white-space:normal;shape-padding:0;clip-rule:nonzero;display:inline;overflow:visible;visibility:visible;opacity:1;isolation:auto;mix-blend-mode:normal;color-interpolation:sRGB;color-interpolation-filters:linearRGB;solid-color:#000000;solid-opacity:1;vector-effect:none;fill:#d8d8d8;fill-opacity:1;fill-rule:nonzero;stroke:none;stroke-width:1.62711322;stroke-linecap:round;stroke-linejoin:round;stroke-miterlimit:4;stroke-dasharray:none;stroke-dashoffset:0;stroke-opacity:1;paint-order:markers fill stroke;color-rendering:auto;image-rendering:auto;shape-rendering:auto;text-rendering:auto;enable-background:accumulate"
           d="m 271.63666,-63.242097 c -1.15508,0 -1.56648,1.318324 -0.58199,1.886722 0,0 3.51683,1.744203 4.28906,5.580078 0.19388,0.08239 0.39028,0.161253 0.58398,0.244141 8.10549,2.171858 7.10306,3.719136 6.57032,11.369141 -0.004,0.03213 -0.009,0.06407 -0.0156,0.0957 0,0 -0.1739,1.027019 -0.9668,1.978515 -0.52675,0.632089 -1.36162,1.237666 -2.51757,1.578125 0.58425,0.171969 1.24445,0.28125 2,0.28125 2.24999,0 3.72466,-0.907879 4.51757,-1.859375 0.79292,-0.951496 0.9668,-1.978515 0.9668,-1.978515 0.007,-0.03163 0.0119,-0.06357 0.0156,-0.0957 l 0.66211,-9.517579 0.33398,-4.789062 c 0.0163,-0.234861 -0.0508,-0.467939 -0.18945,-0.658203 -0.0195,-0.02707 -0.0404,-0.05315 -0.0625,-0.07813 -0.13463,-0.150499 -0.31166,-0.25672 -0.50781,-0.304688 l -14.70771,-3.64054 z"
           transform="matrix(0.26458333,0,0,0.26458333,0,284.3)"
           id="path1622"
           inkscape:connector-curvature="0"
           sodipodi:nodetypes="ccccccccscccccccccc"
           inkscape:export-xdpi="700.72992"
           inkscape:export-ydpi="700.72992" />
        <path
           style="color:#000000;font-style:normal;font-variant:normal;font-weight:normal;font-stretch:normal;font-size:medium;line-height:normal;font-family:sans-serif;font-variant-ligatures:normal;font-variant-position:normal;font-variant-caps:normal;font-variant-numeric:normal;font-variant-alternates:normal;font-feature-settings:normal;text-indent:0;text-align:start;text-decoration:none;text-decoration-line:none;text-decoration-style:solid;text-decoration-color:#000000;letter-spacing:normal;word-spacing:normal;text-transform:none;writing-mode:lr-tb;direction:ltr;text-orientation:mixed;dominant-baseline:auto;baseline-shift:baseline;text-anchor:start;white-space:normal;shape-padding:0;clip-rule:nonzero;display:inline;overflow:visible;visibility:visible;opacity:1;isolation:auto;mix-blend-mode:normal;color-interpolation:sRGB;color-interpolation-filters:linearRGB;solid-color:#000000;solid-opacity:1;vector-effect:none;fill:#f2f2f2;fill-opacity:1;fill-rule:nonzero;stroke:none;stroke-width:0.43050736;stroke-linecap:round;stroke-linejoin:round;stroke-miterlimit:4;stroke-dasharray:none;stroke-dashoffset:0;stroke-opacity:1;paint-order:markers fill stroke;color-rendering:auto;image-rendering:auto;shape-rendering:auto;text-rendering:auto;enable-background:accumulate"
           d="m 66.570312,263.60156 a 0.26460996,0.26460996 0 0 0 -0.263671,0.26563 v 3.96875 a 0.26460996,0.26460996 0 0 0 0.291015,0.26172 l 2.646485,-0.26368 a 0.26460996,0.26460996 0 0 0 0.238281,-0.26367 v -3.43945 a 0.26460996,0.26460996 0 0 0 -0.238281,-0.26367 l -2.646485,-0.26367 a 0.26460996,0.26460996 0 0 0 -0.02734,-0.002 z"
           id="path1506"
           inkscape:connector-curvature="0"
           inkscape:export-xdpi="700.72992"
           inkscape:export-ydpi="700.72992" />
        <path
           style="color:#000000;font-style:normal;font-variant:normal;font-weight:normal;font-stretch:normal;font-size:medium;line-height:normal;font-family:sans-serif;font-variant-ligatures:normal;font-variant-position:normal;font-variant-caps:normal;font-variant-numeric:normal;font-variant-alternates:normal;font-feature-settings:normal;text-indent:0;text-align:start;text-decoration:none;text-decoration-line:none;text-decoration-style:solid;text-decoration-color:#000000;letter-spacing:normal;word-spacing:normal;text-transform:none;writing-mode:lr-tb;direction:ltr;text-orientation:mixed;dominant-baseline:auto;baseline-shift:baseline;text-anchor:start;white-space:normal;shape-padding:0;clip-rule:nonzero;display:inline;overflow:visible;visibility:visible;opacity:1;isolation:auto;mix-blend-mode:normal;color-interpolation:sRGB;color-interpolation-filters:linearRGB;solid-color:#000000;solid-opacity:1;vector-effect:none;fill:#d8d8d8;fill-opacity:1;fill-rule:nonzero;stroke:none;stroke-width:0.43050736;stroke-linecap:round;stroke-linejoin:round;stroke-miterlimit:4;stroke-dasharray:none;stroke-dashoffset:0;stroke-opacity:1;paint-order:markers fill stroke;color-rendering:auto;image-rendering:auto;shape-rendering:auto;text-rendering:auto;enable-background:accumulate"
           d="m 66.542925,263.59954 a 0.26460995,0.26460995 0 0 0 -0.264068,0.26562 v 0.87126 l 1.879471,0.18707 a 0.26460995,0.26460995 0 0 1 0.23823,0.26355 v 2.72645 l 0.820103,-0.0817 a 0.26460995,0.26460995 0 0 0 0.238231,-0.26355 v -3.43958 a 0.26460995,0.26460995 0 0 0 -0.238231,-0.26355 l -2.646349,-0.26355 a 0.26460995,0.26460995 0 0 0 -0.02739,-0.002 z"
           id="path1617"
           inkscape:connector-curvature="0"
           inkscape:export-xdpi="700.72992"
           inkscape:export-ydpi="700.72992" />
        <path
           style="color:#000000;font-style:normal;font-variant:normal;font-weight:normal;font-stretch:normal;font-size:medium;line-height:normal;font-family:sans-serif;font-variant-ligatures:normal;font-variant-position:normal;font-variant-caps:normal;font-variant-numeric:normal;font-variant-alternates:normal;font-feature-settings:normal;text-indent:0;text-align:start;text-decoration:none;text-decoration-line:none;text-decoration-style:solid;text-decoration-color:#000000;letter-spacing:normal;word-spacing:normal;text-transform:none;writing-mode:lr-tb;direction:ltr;text-orientation:mixed;dominant-baseline:auto;baseline-shift:baseline;text-anchor:start;white-space:normal;shape-padding:0;clip-rule:nonzero;display:inline;overflow:visible;visibility:visible;opacity:1;isolation:auto;mix-blend-mode:normal;color-interpolation:sRGB;color-interpolation-filters:linearRGB;solid-color:#000000;solid-opacity:1;vector-effect:none;fill:#82b1ff;fill-opacity:1;fill-rule:nonzero;stroke:none;stroke-width:0.43050706;stroke-linecap:round;stroke-linejoin:round;stroke-miterlimit:4;stroke-dasharray:none;stroke-dashoffset:0;stroke-opacity:1;paint-order:markers fill stroke;color-rendering:auto;image-rendering:auto;shape-rendering:auto;text-rendering:auto;enable-background:accumulate"
           d="m 75.189453,262.5625 c -1.059893,0 -1.754371,0.30876 -2.373047,0.61719 -0.618675,0.30842 -1.160545,0.60969 -2.035156,0.6875 -0.116742,0.0104 -0.528833,0.0132 -0.884766,0.01 -0.355933,-0.003 -0.673828,-0.01 -0.673828,-0.01 a 0.26460978,0.26460978 0 0 0 -0.269531,0.26367 v 3.43945 a 0.26460978,0.26460978 0 0 0 0.251953,0.26367 c 0,0 1.305463,0.0594 1.605469,0.082 0.866241,0.0653 1.528721,0.34757 2.195312,0.63281 0.666592,0.28523 1.340472,0.57668 2.179688,0.58984 a 0.26460978,0.26460978 0 0 0 0.0039,0 c 1.812565,-5e-5 3.287064,-1.47454 3.287109,-3.28711 -4.5e-5,-1.81255 -1.474544,-3.28901 -3.287109,-3.28906 z"
           id="path1542"
           inkscape:connector-curvature="0"
           inkscape:export-xdpi="700.72992"
           inkscape:export-ydpi="700.72992" />
        <path
           style="color:#000000;font-style:normal;font-variant:normal;font-weight:normal;font-stretch:normal;font-size:medium;line-height:normal;font-family:sans-serif;font-variant-ligatures:normal;font-variant-position:normal;font-variant-caps:normal;font-variant-numeric:normal;font-variant-alternates:normal;font-feature-settings:normal;text-indent:0;text-align:start;text-decoration:none;text-decoration-line:none;text-decoration-style:solid;text-decoration-color:#000000;letter-spacing:normal;word-spacing:normal;text-transform:none;writing-mode:lr-tb;direction:ltr;text-orientation:mixed;dominant-baseline:auto;baseline-shift:baseline;text-anchor:start;white-space:normal;shape-padding:0;clip-rule:nonzero;display:inline;overflow:visible;visibility:visible;opacity:1;isolation:auto;mix-blend-mode:normal;color-interpolation:sRGB;color-interpolation-filters:linearRGB;solid-color:#000000;solid-opacity:1;vector-effect:none;fill:#648aff;fill-opacity:1;fill-rule:nonzero;stroke:none;stroke-width:1.62711322;stroke-linecap:round;stroke-linejoin:round;stroke-miterlimit:4;stroke-dasharray:none;stroke-dashoffset:0;stroke-opacity:1;paint-order:markers fill stroke;color-rendering:auto;image-rendering:auto;shape-rendering:auto;text-rendering:auto;enable-background:accumulate"
           d="m 284.17969,-82.160156 v 0.002 c -3.05921,-0.04274 -6.41459,1.067583 -8.96887,2.333979 -2.3383,1.165682 -4.38579,2.303571 -7.69141,2.597657 -0.44123,0.03931 -2.00045,0.04845 -3.3457,0.03711 -0.7273,-0.0061 -0.90081,-0.01113 -1.37695,-0.01953 0.0266,-8.68e-4 0.0695,-0.001 0.0957,-0.002 -0.46236,-0.0076 -1.26367,-0.01758 -1.26367,-0.01758 v 0.002 h -0.002 c -0.0332,-3.56e-4 -0.0665,9.45e-4 -0.0996,0.0039 -0.0321,0.003 -0.064,0.0076 -0.0957,0.01367 -10e-4,-3e-6 -0.003,-3e-6 -0.004,0 -0.47239,0.0873 -0.81598,0.498132 -0.81835,0.978515 v 3.017578 c 0.4727,0.0076 0.7381,0.01588 1.56445,0.02344 1.34525,0.01134 2.90447,7.36e-4 3.3457,-0.03906 3.30562,-0.294047 5.3531,-1.431974 7.69141,-2.597656 2.3383,-1.16572 4.96286,-2.333984 8.96875,-2.333984 5.42479,0 10.39481,3.088505 10.42383,8.433594 -1.7e-4,6.165354 -4.51747,11.281218 -10.41407,12.246093 0.6349,0.09865 1.28902,0.167152 1.97657,0.177735 0.005,3.1e-5 0.009,3.1e-5 0.0137,0 7.22937,0 12.4238,-5.615438 12.4238,-12.416016 v -0.0078 -0.002 c -0.21975,-5.257393 -2.95884,-9.218205 -7.59185,-11.451266 -1.48585,-0.630271 -3.11937,-0.980421 -4.83203,-0.980468 z"
           transform="matrix(0.26458333,0,0,0.26458333,0,284.3)"
           id="path1602"
           inkscape:connector-curvature="0"
           sodipodi:nodetypes="ccccccccccccccccccccccccccccc"
           inkscape:export-xdpi="700.72992"
           inkscape:export-ydpi="700.72992" />
        <path
           style="color:#000000;font-style:normal;font-variant:normal;font-weight:normal;font-stretch:normal;font-size:medium;line-height:normal;font-family:sans-serif;font-variant-ligatures:normal;font-variant-position:normal;font-variant-caps:normal;font-variant-numeric:normal;font-variant-alternates:normal;font-feature-settings:normal;text-indent:0;text-align:start;text-decoration:none;text-decoration-line:none;text-decoration-style:solid;text-decoration-color:#000000;letter-spacing:normal;word-spacing:normal;text-transform:none;writing-mode:lr-tb;direction:ltr;text-orientation:mixed;dominant-baseline:auto;baseline-shift:baseline;text-anchor:start;white-space:normal;shape-padding:0;clip-rule:nonzero;display:inline;overflow:visible;visibility:visible;opacity:1;isolation:auto;mix-blend-mode:normal;color-interpolation:sRGB;color-interpolation-filters:linearRGB;solid-color:#000000;solid-opacity:1;vector-effect:none;fill:#717171;fill-opacity:1;fill-rule:nonzero;stroke:none;stroke-width:1.6271143;stroke-linecap:round;stroke-linejoin:round;stroke-miterlimit:4;stroke-dasharray:none;stroke-dashoffset:0;stroke-opacity:1;paint-order:markers fill stroke;color-rendering:auto;image-rendering:auto;shape-rendering:auto;text-rendering:auto;enable-background:accumulate"
           d="m 275.5,-53.228516 v 7.996094 h 4.99609 a 1.0001006,1.0001006 0 0 0 1.00586,-0.998047 v -6 a 1.0001006,1.0001006 0 0 0 -1.00586,-0.998047 z"
           transform="matrix(0.26458333,0,0,0.26458333,0,284.3)"
           id="path1589"
           inkscape:connector-curvature="0"
           inkscape:export-xdpi="700.72992"
           inkscape:export-ydpi="700.72992" />
        <path
           style="color:#000000;font-style:normal;font-variant:normal;font-weight:normal;font-stretch:normal;font-size:medium;line-height:normal;font-family:sans-serif;font-variant-ligatures:normal;font-variant-position:normal;font-variant-caps:normal;font-variant-numeric:normal;font-variant-alternates:normal;font-feature-settings:normal;text-indent:0;text-align:start;text-decoration:none;text-decoration-line:none;text-decoration-style:solid;text-decoration-color:#000000;letter-spacing:normal;word-spacing:normal;text-transform:none;writing-mode:lr-tb;direction:ltr;text-orientation:mixed;dominant-baseline:auto;baseline-shift:baseline;text-anchor:start;white-space:normal;shape-padding:0;clip-rule:nonzero;display:inline;overflow:visible;visibility:visible;opacity:1;isolation:auto;mix-blend-mode:normal;color-interpolation:sRGB;color-interpolation-filters:linearRGB;solid-color:#000000;solid-opacity:1;vector-effect:none;fill:#717171;fill-opacity:1;fill-rule:nonzero;stroke:none;stroke-width:0.43050736;stroke-linecap:round;stroke-linejoin:round;stroke-miterlimit:4;stroke-dasharray:none;stroke-dashoffset:0;stroke-opacity:1;paint-order:markers fill stroke;color-rendering:auto;image-rendering:auto;shape-rendering:auto;text-rendering:auto;enable-background:accumulate"
           d="m 75.302734,263.99805 c -1.019743,0 -1.851562,0.83377 -1.851562,1.85351 0,1.01975 0.831819,1.85156 1.851562,1.85156 1.019744,0 1.851563,-0.83181 1.851563,-1.85156 0,-1.01974 -0.831819,-1.85351 -1.851563,-1.85351 z"
           id="path1549"
           inkscape:connector-curvature="0"
           inkscape:export-xdpi="700.72992"
           inkscape:export-ydpi="700.72992" />
        <path
           style="color:#000000;font-style:normal;font-variant:normal;font-weight:normal;font-stretch:normal;font-size:medium;line-height:normal;font-family:sans-serif;font-variant-ligatures:normal;font-variant-position:normal;font-variant-caps:normal;font-variant-numeric:normal;font-variant-alternates:normal;font-feature-settings:normal;text-indent:0;text-align:start;text-decoration:none;text-decoration-line:none;text-decoration-style:solid;text-decoration-color:#000000;letter-spacing:normal;word-spacing:normal;text-transform:none;writing-mode:lr-tb;direction:ltr;text-orientation:mixed;dominant-baseline:auto;baseline-shift:baseline;text-anchor:start;white-space:normal;shape-padding:0;clip-rule:nonzero;display:inline;overflow:visible;visibility:visible;opacity:1;isolation:auto;mix-blend-mode:normal;color-interpolation:sRGB;color-interpolation-filters:linearRGB;solid-color:#000000;solid-opacity:1;vector-effect:none;fill:#515151;fill-opacity:1;fill-rule:nonzero;stroke:none;stroke-width:0.43050736;stroke-linecap:round;stroke-linejoin:round;stroke-miterlimit:4;stroke-dasharray:none;stroke-dashoffset:0;stroke-opacity:1;paint-order:markers fill stroke;color-rendering:auto;image-rendering:auto;shape-rendering:auto;text-rendering:auto;enable-background:accumulate"
           d="m 75.302732,263.99788 c -0.644451,0 -1.213307,0.33363 -1.545127,0.83612 0.292103,-0.19319 0.641065,-0.30695 1.015961,-0.30695 1.019743,0 1.851564,0.83389 1.851564,1.85363 0,0.37504 -0.112934,0.72431 -0.305924,1.01648 0.502258,-0.33176 0.835091,-0.90093 0.835091,-1.54565 0,-1.01974 -0.831821,-1.85363 -1.851565,-1.85363 z"
           id="path1596"
           inkscape:connector-curvature="0"
           inkscape:export-xdpi="700.72992"
           inkscape:export-ydpi="700.72992" />
        <path
           style="color:#000000;font-style:normal;font-variant:normal;font-weight:normal;font-stretch:normal;font-size:medium;line-height:normal;font-family:sans-serif;font-variant-ligatures:normal;font-variant-position:normal;font-variant-caps:normal;font-variant-numeric:normal;font-variant-alternates:normal;font-feature-settings:normal;text-indent:0;text-align:start;text-decoration:none;text-decoration-line:none;text-decoration-style:solid;text-decoration-color:#000000;letter-spacing:normal;word-spacing:normal;text-transform:none;writing-mode:lr-tb;direction:ltr;text-orientation:mixed;dominant-baseline:auto;baseline-shift:baseline;text-anchor:start;white-space:normal;shape-padding:0;clip-rule:nonzero;display:inline;overflow:visible;visibility:visible;opacity:1;isolation:auto;mix-blend-mode:normal;color-interpolation:sRGB;color-interpolation-filters:linearRGB;solid-color:#000000;solid-opacity:1;vector-effect:none;fill:#515151;fill-opacity:1;fill-rule:nonzero;stroke:none;stroke-width:0.43050736;stroke-linecap:round;stroke-linejoin:round;stroke-miterlimit:4;stroke-dasharray:none;stroke-dashoffset:0;stroke-opacity:1;paint-order:markers fill stroke;color-rendering:auto;image-rendering:auto;shape-rendering:auto;text-rendering:auto;enable-background:accumulate"
           d="m 72.892707,270.21662 v 0.52917 h 0.792716 a 0.26460995,0.26460995 0 0 1 0.266134,0.26407 v 1.3224 h 0.263033 a 0.26460995,0.26460995 0 0 0 0.266133,-0.26407 v -1.5875 a 0.26460995,0.26460995 0 0 0 -0.266133,-0.26407 z"
           id="path1634"
           inkscape:connector-curvature="0"
           inkscape:export-xdpi="700.72992"
           inkscape:export-ydpi="700.72992" />
      </g>
      <path
         inkscape:connector-curvature="0"
         id="path964"
         d="m 10.866924,283.83165 c -1.0598938,0 -1.7543068,0.3091 -2.3729818,0.61753 -0.6186749,0.30842 -1.1604072,0.60949 -2.0350192,0.6873 -0.1167418,0.0104 -0.5287668,0.013 -0.8847,0.01 -0.3431039,-0.003 -0.62783,-0.009 -0.6495729,-0.009 a 0.26498513,0.26498513 0 0 0 -0.0027,-5.2e-4 l -2.6468692,-0.26355 a 0.26460995,0.26460995 0 0 0 -0.02739,-0.002 0.26460995,0.26460995 0 0 0 -0.263552,0.26562 v 3.96875 a 0.26460995,0.26460995 0 0 0 0.290943,0.26144 l 2.6334319,-0.26252 c 0.04077,0.002 1.2845711,0.0584 1.5797482,0.0806 0.334036,0.0252 0.6370659,0.0828 0.9224248,0.16019 0.05028,0.0254 1.1596183,0.59911 1.1596183,1.86501 v 2.65668 c 1.27e-4,0.0144 0.00111,0.0287 0.0036,0.0429 0,0 0.04601,0.27174 0.2557989,0.52349 0.1920139,0.23041 0.5373722,0.44893 1.050581,0.48472 -0.010581,0.13959 -0.02906,0.2607 -0.07183,0.3297 -0.06753,0.10891 -0.189907,0.2067 -0.634587,0.2067 H 8.3046762 c -0.1931299,0 -0.291057,-0.0598 -0.378788,-0.18345 -0.08773,-0.12368 -0.150894,-0.33442 -0.150894,-0.61495 v -1.58233 c 0,0 0.0041,-0.25418 -0.126609,-0.51573 -0.13077,-0.26154 -0.4466529,-0.5426 -0.9317249,-0.5426 -0.485068,0 -0.7988851,0.28106 -0.929658,0.5426 -0.1307732,0.26155 -0.1271252,0.51573 -0.1271252,0.51573 v 1.05678 c 0,0.35286 0.5296832,0.35286 0.5296832,0 v -1.05678 c 0,0 0.0027,-0.14372 0.07028,-0.27905 0.06767,-0.13533 0.14814,-0.25012 0.456819,-0.25012 0.3086809,0 0.3912209,0.11479 0.4588881,0.25012 0.06767,0.13533 0.07028,0.27905 0.07028,0.27905 v 1.58233 c 0,0.35407 0.07119,0.67207 0.2480469,0.92139 0.1768552,0.24933 0.4747681,0.4067 0.8108021,0.4067 h 0.8691992 c 0.5395169,0 0.9071974,-0.16939 1.0857234,-0.45734 0.129875,-0.20949 0.155802,-0.4326 0.160713,-0.64079 0.37759,-0.0779 0.641315,-0.2617 0.800468,-0.45268 0.209791,-0.25175 0.255799,-0.52349 0.255799,-0.52349 0.0016,-0.008 0.0027,-0.0168 0.0036,-0.0253 l 0.250111,-3.59564 c 1.394413,-0.38056 2.423586,-1.65485 2.423626,-3.16828 -4.5e-5,-1.81256 -1.474573,-3.28916 -3.287138,-3.28921 z m -0.151929,0.53485 v 0.92242 c -0.8944978,0.12997 -1.5859498,0.9025 -1.5859498,1.83193 0,0.92945 0.691452,1.70071 1.5859498,1.83038 v 0.91881 c -0.651595,-0.042 -1.2066109,-0.27369 -1.8241778,-0.53795 -0.6666309,-0.28525 -1.403001,-0.60141 -2.3636811,-0.67386 -0.2900469,-0.0219 -1.0749151,-0.0562 -1.366841,-0.0693 v -2.92023 c 0.1266701,0.003 0.1922971,0.004 0.408245,0.007 0.3597301,0.003 0.741812,0.006 0.93741,-0.0114 0.9774722,-0.087 1.618832,-0.4385 2.2246701,-0.74052 0.5722541,-0.28529 1.116737,-0.53043 1.9843748,-0.55707 z m 0.529167,0.0233 c 1.346761,0.18381 2.380697,1.33282 2.380734,2.7311 -3.7e-5,1.39837 -1.03387,2.54611 -2.380734,2.72955 v -0.89865 c 0.895271,-0.12899 1.588016,-0.9009 1.588016,-1.8309 0,-0.92998 -0.692745,-1.70317 -1.588016,-1.83244 z m -8.7307339,1.03767 2.1171849,0.2129 v 2.95951 l -2.1171849,0.21239 V 288.3105 H 3.043113 c 0.3528671,0 0.3528671,-0.52917 0,-0.52917 H 2.5134281 v -0.39688 h 1.058852 c 0.352858,0 0.352858,-0.52916 0,-0.52916 h -1.058852 v -0.39636 H 3.043113 c 0.352859,0 0.352859,-0.52917 0,-0.52917 H 2.5134281 Z m 8.4671849,0.36948 c 0.733758,0 1.321882,0.59019 1.321882,1.32395 0,0.73376 -0.588124,1.3224 -1.321882,1.3224 -0.733761,0 -1.3244668,-0.58864 -1.3244668,-1.3224 0,-0.73376 0.5907058,-1.32395 1.3244668,-1.32395 z m -0.0062,0.39429 a 0.26460995,0.26460995 0 0 0 -0.181385,0.0801 l -0.529168,0.52917 a 0.26516505,0.26516505 0 0 0 0.374655,0.37517 l 0.529683,-0.52917 a 0.26460995,0.26460995 0 0 0 -0.193786,-0.45532 z m 0.532783,0.79272 a 0.26460995,0.26460995 0 0 0 -0.0031,5.3e-4 0.26460995,0.26460995 0 0 0 -0.181901,0.0801 l -0.529166,0.52917 a 0.26516505,0.26516505 0 0 0 0.375171,0.37465 l 0.529167,-0.52917 a 0.26460995,0.26460995 0 0 0 -0.19017,-0.45527 z m -2.8375636,2.82877 c 0.0046,0.002 0.0093,0.004 0.013941,0.006 0.6665942,0.28523 1.3404986,0.57647 2.1797146,0.58963 0.0013,10e-6 0.0024,10e-6 0.0036,0 0.110321,0 0.219551,-0.006 0.327112,-0.0165 l -0.240813,3.43855 c -7.94e-4,0.005 -0.0205,0.12134 -0.139009,0.26355 -0.120939,0.14512 -0.326078,0.30283 -0.789099,0.30283 -0.4630214,0 -0.6676475,-0.15771 -0.7885835,-0.30283 -0.1174639,-0.14096 -0.1357728,-0.25454 -0.136943,-0.26148 V 293.602 h 0.792716 c 0.1461725,5.6e-4 0.2656185,-0.11789 0.2661345,-0.26406 v -1.5875 c -5.3e-4,-0.14658 -0.119958,-0.26504 -0.2661303,-0.26448 h -0.792716 v -0.27492 c 0,-0.57689 -0.188822,-1.03956 -0.4299482,-1.39836 z m 0.429948,2.20297 h 0.5291661 v 1.05833 h -0.529168 z"
         style="color:#000000;font-style:normal;font-variant:normal;font-weight:normal;font-stretch:normal;font-size:medium;line-height:normal;font-family:sans-serif;font-variant-ligatures:normal;font-variant-position:normal;font-variant-caps:normal;font-variant-numeric:normal;font-variant-alternates:normal;font-feature-settings:normal;text-indent:0;text-align:start;text-decoration:none;text-decoration-line:none;text-decoration-style:solid;text-decoration-color:#000000;letter-spacing:normal;word-spacing:normal;text-transform:none;writing-mode:lr-tb;direction:ltr;text-orientation:mixed;dominant-baseline:auto;baseline-shift:baseline;text-anchor:start;white-space:normal;shape-padding:0;clip-rule:nonzero;display:inline;overflow:visible;visibility:visible;opacity:1;isolation:auto;mix-blend-mode:normal;color-interpolation:sRGB;color-interpolation-filters:linearRGB;solid-color:#000000;solid-opacity:1;vector-effect:none;fill:#1a1a1a;fill-opacity:1;fill-rule:nonzero;stroke:none;stroke-width:0.43050736;stroke-linecap:round;stroke-linejoin:round;stroke-miterlimit:4;stroke-dasharray:none;stroke-dashoffset:0;stroke-opacity:1;paint-order:markers fill stroke;color-rendering:auto;image-rendering:auto;shape-rendering:auto;text-rendering:auto;enable-background:accumulate" />
    </g>
  </g>
</svg>
