<svg width="50.00000000000001" height="50.00000000000001" xmlns="http://www.w3.org/2000/svg" version="1.1">

 <g>
  <title>Layer 1</title>
  <g id="surface1">
   <path id="svg_1" fill-rule="nonzero" fill="#ffffff" d="m28.05368,37.97304c0,-0.71094 0.07812,-1.39844 0.1875,-2.08594l-21.02344,0l0,-12.5l33.33594,0l0,2.08594c1.45312,0 2.85156,0.26562 4.16406,0.72656l0,-15.3125c0,-2.3125 -1.85156,-4.16406 -4.16406,-4.16406l-33.33594,0c-2.3125,0 -4.16406,1.85156 -4.16406,4.16406l0,25c0,2.28906 1.85156,4.16406 4.16406,4.16406l21.02344,0c-0.10938,-0.6875 -0.1875,-1.375 -0.1875,-2.07812m-20.83594,-27.08594l33.33594,0l0,4.16406l-33.33594,0l0,-4.16406m30.72656,33.33594l-5.72656,-6.25l2.41406,-2.42188l3.3125,3.3125l7.48438,-7.47656l2.41406,2.9375l-9.89844,9.89844"/>
  </g>
 </g>
</svg>