<?xml version="1.0" encoding="UTF-8"?>
<svg xmlns="http://www.w3.org/2000/svg" xmlns:xlink="http://www.w3.org/1999/xlink" width="100pt" height="100pt" viewBox="0 0 100 100" version="1.1">
<g id="surface1">
<path style=" stroke:none;fill-rule:nonzero;fill:rgb(5.882353%,46.666667%,100%);fill-opacity:1;" d="M 44.34375 2.585938 C 36.03125 3.722656 28.9375 6.617188 22.257812 11.578125 C 3.824219 25.226562 -2.089844 49.941406 8.210938 70.410156 C 13.597656 81.09375 23.40625 89.675781 34.8125 93.707031 C 47.367188 98.15625 61.210938 97.15625 73.035156 90.917969 C 95.886719 78.886719 104.894531 51.109375 93.347656 28.191406 C 88.164062 17.921875 78.601562 9.304688 67.820312 5.203125 C 60.761719 2.515625 51.925781 1.515625 44.34375 2.585938 Z M 22.953125 25.332031 L 22.953125 28.953125 L 27.128906 28.953125 L 27.128906 32.050781 L 22.953125 32.050781 L 22.953125 35.53125 C 22.953125 38.429688 23.023438 38.980469 23.441406 38.839844 C 24.589844 38.394531 26.847656 37.875 26.988281 38.011719 C 27.09375 38.121094 27.230469 38.703125 27.335938 39.359375 L 27.546875 40.5625 L 22.953125 41.875 L 22.953125 47.769531 C 22.953125 55.140625 22.917969 55.246094 19.058594 55.417969 C 16.554688 55.558594 16.484375 55.519531 16.070312 54.660156 C 15.304688 52.972656 15.476562 52.761719 17.84375 52.660156 L 19.996094 52.558594 L 20.101562 47.628906 C 20.136719 44.941406 20.136719 42.734375 20.101562 42.734375 C 20.03125 42.734375 19.023438 43.042969 17.84375 43.390625 C 16.625 43.769531 15.582031 43.941406 15.511719 43.839844 C 15.441406 43.699219 15.265625 43.011719 15.128906 42.320312 C 14.851562 40.910156 14.574219 41.113281 18.78125 40.050781 L 19.996094 39.773438 L 20.101562 35.910156 L 20.207031 32.050781 L 15.304688 32.050781 L 15.304688 28.953125 L 20.171875 28.953125 L 20.171875 21.714844 L 22.953125 21.714844 Z M 39.300781 24.644531 L 39.300781 27.574219 L 47.996094 27.574219 L 47.996094 30.332031 L 39.300781 30.332031 L 39.300781 35.5 L 42.710938 35.5 C 45.074219 35.5 46.324219 35.636719 46.777344 35.980469 C 47.402344 36.429688 47.402344 36.53125 46.464844 38.738281 C 45.179688 41.703125 43.472656 44.53125 41.523438 46.769531 L 39.960938 48.59375 L 42.050781 49.941406 C 43.230469 50.660156 45.316406 51.699219 46.742188 52.210938 L 49.351562 53.140625 L 48.445312 54.488281 L 47.578125 55.796875 L 45.316406 54.96875 C 44.066406 54.488281 42.121094 53.523438 40.972656 52.800781 C 39.820312 52.109375 38.570312 51.320312 38.152344 51.042969 C 37.421875 50.628906 37.179688 50.699219 35.300781 51.902344 C 33.179688 53.210938 28.171875 55.488281 27.300781 55.488281 C 26.847656 55.488281 25.144531 53.140625 25.425781 52.9375 C 25.496094 52.867188 26.398438 52.558594 27.441406 52.25 C 29.386719 51.628906 33.425781 49.699219 34.570312 48.871094 C 35.199219 48.390625 35.128906 48.25 33.5625 46.148438 C 32.65625 44.941406 31.300781 42.667969 30.539062 41.082031 C 29.769531 39.460938 28.96875 38.253906 28.695312 38.253906 C 28.308594 38.253906 28.171875 37.839844 28.171875 36.875 L 28.171875 35.5 L 36.171875 35.5 L 36.171875 30.332031 L 27.476562 30.332031 L 27.476562 27.574219 L 36.171875 27.574219 L 36.171875 21.714844 L 39.300781 21.714844 Z M 60.726562 22.261719 C 61.175781 22.367188 61.558594 22.574219 61.558594 22.710938 C 61.558594 23.226562 57.976562 27.574219 55.996094 29.433594 L 53.804688 31.5 L 53.003906 30.464844 C 52.550781 29.914062 52.167969 29.363281 52.167969 29.261719 C 52.167969 29.121094 52.863281 28.464844 53.734375 27.777344 C 54.566406 27.089844 56.097656 25.433594 57.070312 24.09375 C 58.257812 22.542969 59.054688 21.746094 59.402344 21.886719 C 59.648438 21.988281 60.273438 22.164062 60.726562 22.261719 Z M 70.601562 26.363281 L 70.601562 30.671875 L 76.511719 30.671875 L 76.511719 33.085938 L 86.601562 33.085938 L 86.601562 35.84375 L 83.46875 35.84375 L 83.46875 43.839844 C 83.46875 48.25 83.296875 52.421875 83.125 53.109375 C 82.703125 54.628906 81.765625 55.070312 78.671875 55.210938 L 76.445312 55.316406 L 75.957031 53.9375 C 75.714844 53.179688 75.472656 52.523438 75.472656 52.453125 C 75.472656 52.421875 76.582031 52.386719 77.90625 52.386719 L 80.339844 52.386719 L 80.339844 35.84375 L 76.167969 35.84375 L 76.167969 33.433594 L 70.601562 33.433594 L 70.601562 35.324219 C 70.601562 37.152344 70.632812 37.222656 71.332031 36.875 C 71.714844 36.632812 72.238281 36.566406 72.480469 36.632812 C 73.105469 36.875 77.90625 45.183594 77.90625 45.972656 C 77.90625 46.183594 75.820312 46.972656 75.679688 46.839844 C 75.609375 46.769531 74.84375 45.289062 73.972656 43.597656 C 73.105469 41.875 71.992188 39.875 71.507812 39.121094 L 70.632812 37.738281 L 70.601562 46.59375 L 70.601562 55.488281 L 67.472656 55.488281 L 67.472656 47.800781 L 67.4375 40.152344 L 66.289062 42.5625 C 65.246094 44.769531 63.402344 47.769531 62.078125 49.421875 C 61.558594 50.078125 61.558594 50.078125 60.621094 49.25 C 60.0625 48.800781 59.578125 48.390625 59.507812 48.351562 C 59.4375 48.320312 59.855469 47.664062 60.445312 46.941406 C 62.675781 44.183594 66.429688 35.980469 66.429688 33.914062 C 66.429688 33.535156 65.90625 33.433594 64.167969 33.433594 L 61.90625 33.433594 L 61.90625 32.292969 C 61.90625 31.222656 61.835938 31.261719 60.515625 33.433594 L 59.125 35.671875 L 59.125 55.832031 L 56.34375 55.832031 L 56.34375 39.152344 L 54.707031 40.769531 L 53.074219 42.390625 L 52.273438 41.011719 L 51.4375 39.671875 L 53.039062 38.222656 C 54.707031 36.671875 57.417969 33.222656 58.917969 30.640625 C 59.820312 29.019531 59.855469 29.019531 61.039062 29.398438 C 61.699219 29.605469 62.253906 29.953125 62.253906 30.226562 C 62.253906 30.570312 62.914062 30.671875 64.863281 30.671875 L 67.472656 30.671875 L 67.472656 22.054688 L 70.601562 22.054688 Z M 73.972656 24.539062 C 75.019531 25.710938 76.511719 28.023438 76.511719 28.464844 C 76.511719 28.710938 76.132812 29.121094 75.679688 29.398438 C 74.878906 29.953125 74.84375 29.914062 73.175781 27.464844 C 72.238281 26.089844 71.4375 24.882812 71.367188 24.78125 C 71.296875 24.605469 72.550781 23.851562 73.070312 23.816406 C 73.175781 23.78125 73.59375 24.125 73.972656 24.539062 Z M 86.183594 25.917969 L 86.285156 27.226562 L 76.863281 27.226562 L 76.863281 26.089844 C 76.863281 25.433594 76.964844 24.816406 77.105469 24.675781 C 77.246094 24.574219 79.300781 24.503906 81.695312 24.539062 L 86.082031 24.644531 Z M 32.519531 65.515625 C 32.625 65.65625 32.625 65.964844 32.519531 66.238281 C 32.347656 66.65625 31.820312 66.722656 29.980469 66.585938 C 27.820312 66.449219 27.582031 66.515625 26.710938 67.34375 C 25.566406 68.515625 25.179688 70.515625 25.839844 72.066406 C 26.535156 73.753906 27.300781 74.234375 29.355469 74.269531 L 31.128906 74.269531 L 31.230469 72.789062 L 31.335938 71.339844 L 30.117188 71.339844 C 29.109375 71.339844 28.867188 71.203125 28.867188 70.648438 C 28.867188 70.03125 29.109375 69.960938 30.78125 69.960938 L 32.691406 69.960938 L 32.691406 72.515625 C 32.691406 73.960938 32.519531 75.199219 32.308594 75.304688 C 32.101562 75.445312 31.058594 75.613281 29.980469 75.71875 C 26.503906 75.996094 24.347656 74.234375 24.066406 70.894531 C 23.960938 69.480469 24.101562 68.71875 24.625 67.65625 C 25.632812 65.726562 27.058594 65.101562 29.980469 65.207031 C 31.265625 65.277344 32.417969 65.414062 32.519531 65.515625 Z M 36.519531 70.308594 C 36.519531 75.234375 36.484375 75.476562 35.820312 75.476562 C 35.160156 75.476562 35.128906 75.234375 35.128906 70.308594 C 35.128906 65.378906 35.160156 65.136719 35.820312 65.136719 C 36.484375 65.136719 36.519531 65.378906 36.519531 70.308594 Z M 40.34375 70.894531 C 40.34375 76.304688 40.308594 76.683594 39.578125 77.4375 C 38.570312 78.507812 36.519531 78.578125 36.519531 77.546875 C 36.519531 77.027344 36.761719 76.855469 37.523438 76.855469 C 38.121094 76.855469 38.601562 76.648438 38.742188 76.304688 C 38.847656 75.996094 38.953125 73.375 38.953125 70.445312 C 38.953125 65.378906 38.988281 65.136719 39.648438 65.136719 C 40.308594 65.136719 40.34375 65.378906 40.34375 70.894531 Z M 44.171875 69.097656 C 44.171875 73.648438 44.550781 74.445312 46.777344 74.445312 C 49.003906 74.445312 49.386719 73.648438 49.386719 69.097656 C 49.386719 65.378906 49.421875 65.136719 50.082031 65.136719 C 50.742188 65.136719 50.777344 65.378906 50.777344 69.273438 C 50.777344 73.339844 50.777344 73.410156 49.769531 74.507812 C 48.832031 75.546875 48.550781 75.648438 46.777344 75.648438 C 45.003906 75.648438 44.726562 75.546875 43.785156 74.507812 C 42.777344 73.410156 42.777344 73.339844 42.777344 69.273438 C 42.777344 65.378906 42.8125 65.136719 43.472656 65.136719 C 44.136719 65.136719 44.171875 65.378906 44.171875 69.097656 Z M 59.820312 65.828125 C 59.820312 66.410156 59.578125 66.515625 58.257812 66.515625 L 56.691406 66.515625 L 56.691406 70.996094 C 56.691406 75.234375 56.65625 75.476562 55.996094 75.476562 C 55.335938 75.476562 55.296875 75.234375 55.296875 70.996094 L 55.296875 66.515625 L 53.769531 66.515625 C 52.203125 66.515625 51.578125 66.136719 51.996094 65.480469 C 52.132812 65.277344 53.839844 65.136719 56.027344 65.136719 C 59.578125 65.136719 59.820312 65.171875 59.820312 65.828125 Z M 66.949219 65.550781 C 67.054688 65.65625 67.054688 65.964844 66.949219 66.238281 C 66.808594 66.621094 66.324219 66.722656 64.929688 66.585938 C 63.542969 66.480469 62.984375 66.585938 62.636719 66.964844 C 61.835938 67.929688 62.359375 68.71875 64.515625 69.789062 C 66.984375 71.03125 67.679688 72.066406 67.089844 73.753906 C 66.464844 75.476562 63.683594 76.339844 61.417969 75.476562 C 60.929688 75.304688 60.515625 74.925781 60.515625 74.617188 C 60.515625 74.199219 60.828125 74.132812 62.359375 74.304688 C 64.726562 74.578125 65.800781 74.097656 65.664062 72.789062 C 65.597656 72.066406 65.175781 71.6875 63.785156 70.996094 C 61.246094 69.757812 60.867188 69.375 60.867188 67.894531 C 60.867188 65.894531 62.148438 65.035156 64.757812 65.207031 C 65.871094 65.277344 66.84375 65.449219 66.949219 65.550781 Z M 70.601562 69.238281 C 70.601562 73.132812 70.632812 73.410156 71.367188 73.890625 C 72.410156 74.617188 73.835938 74.578125 74.742188 73.824219 C 75.402344 73.304688 75.472656 72.824219 75.539062 69.273438 C 75.644531 65.449219 75.679688 65.308594 76.445312 65.207031 C 77.210938 65.101562 77.210938 65.136719 77.210938 68.824219 C 77.210938 73.480469 76.722656 74.71875 74.53125 75.476562 C 73.210938 75.925781 72.863281 75.925781 71.578125 75.476562 C 69.351562 74.71875 68.863281 73.480469 68.863281 68.824219 L 68.863281 65.136719 L 70.601562 65.136719 Z M 70.601562 69.238281 "/>
<path style=" stroke:none;fill-rule:nonzero;fill:rgb(5.882353%,46.666667%,100%);fill-opacity:1;" d="M 32.902344 39.496094 C 33.597656 41.113281 34.917969 43.21875 36.414062 45.082031 C 37.59375 46.527344 37.664062 46.5625 38.328125 45.941406 C 39.300781 45.082031 41.839844 41.492188 42.742188 39.703125 L 43.472656 38.253906 L 32.378906 38.253906 Z M 32.902344 39.496094 "/>
</g>
</svg>
